#define buscando_satelites_width 127
#define buscando_satelites_height 64
static unsigned char buscando_satelites_bits[] = {
   0x00, 0x00, 0x00, 0x00, 0x00, 0x10, 0x00, 0x00, 0x00, 0x00, 0x00, 0x00,
   0x00, 0x00, 0x00, 0x00, 0x00, 0x00, 0x00, 0x00, 0x00, 0x38, 0x00, 0x00,
   0x00, 0x00, 0x00, 0x00, 0x00, 0x00, 0x00, 0x00, 0x00, 0x00, 0x00, 0x00,
   0x00, 0x4c, 0x00, 0x00, 0x00, 0x00, 0x00, 0x00, 0x00, 0x00, 0x00, 0x00,
   0x00, 0x00, 0x00, 0x00, 0x00, 0x86, 0x00, 0x00, 0x00, 0x00, 0x00, 0x00,
   0x00, 0x00, 0x00, 0x00, 0x00, 0x00, 0x00, 0x00, 0x00, 0x81, 0x01, 0x00,
   0x00, 0x00, 0x00, 0x00, 0x00, 0x00, 0x00, 0x00, 0x00, 0x00, 0x00, 0x00,
   0x80, 0x11, 0x03, 0x00, 0x00, 0x00, 0x00, 0x00, 0x00, 0x00, 0x00, 0x00,
   0x00, 0x00, 0x08, 0x00, 0xc0, 0x18, 0x04, 0x00, 0x00, 0x00, 0x00, 0x00,
   0x00, 0x00, 0x00, 0x00, 0x00, 0x00, 0x1c, 0x00, 0x40, 0x08, 0x08, 0x00,
   0x00, 0x00, 0x00, 0x00, 0x00, 0x00, 0x00, 0x00, 0x00, 0x00, 0x26, 0x00,
   0x30, 0xc6, 0x18, 0x00, 0x00, 0x00, 0x00, 0x00, 0x00, 0x00, 0x00, 0x00,
   0x00, 0x00, 0x63, 0x00, 0x18, 0x42, 0x30, 0x00, 0x00, 0x00, 0x00, 0x00,
   0x00, 0x00, 0x00, 0x00, 0x00, 0x80, 0x81, 0x00, 0x8c, 0x31, 0x40, 0x00,
   0x00, 0x00, 0x00, 0x00, 0x00, 0x00, 0x00, 0x00, 0x00, 0x40, 0x80, 0x01,
   0xc4, 0x30, 0x42, 0x00, 0x00, 0x00, 0x00, 0x00, 0x00, 0x00, 0x00, 0x00,
   0x00, 0x60, 0x00, 0x02, 0x63, 0x0c, 0x63, 0x00, 0x00, 0x00, 0x00, 0x00,
   0x00, 0x00, 0x00, 0x00, 0x00, 0x30, 0x00, 0x86, 0x21, 0x84, 0x10, 0x00,
   0x00, 0x00, 0x00, 0x00, 0x00, 0x00, 0x00, 0x00, 0x00, 0x18, 0x00, 0xc8,
   0x18, 0xe3, 0x18, 0x00, 0x00, 0x00, 0x00, 0x00, 0x00, 0x00, 0x00, 0x00,
   0x00, 0x04, 0x00, 0x78, 0x08, 0x23, 0x04, 0x00, 0x00, 0x00, 0x00, 0x00,
   0x00, 0x00, 0x00, 0x00, 0x00, 0x06, 0x00, 0x20, 0xc0, 0x10, 0x06, 0x00,
   0x00, 0x00, 0x00, 0x00, 0x00, 0x00, 0x00, 0x00, 0x00, 0x03, 0x00, 0x40,
   0x40, 0x1c, 0x01, 0x00, 0x00, 0x00, 0x00, 0x00, 0x00, 0x00, 0x03, 0x00,
   0x80, 0x01, 0x00, 0xc0, 0x20, 0x84, 0x01, 0x00, 0x7e, 0x00, 0x00, 0x00,
   0x00, 0x00, 0x02, 0x00, 0x40, 0x00, 0x00, 0x80, 0x01, 0x46, 0x00, 0x00,
   0x46, 0x00, 0x00, 0x00, 0x00, 0x00, 0x03, 0x00, 0xc0, 0x00, 0x00, 0x00,
   0x02, 0x61, 0x00, 0x00, 0x44, 0x44, 0x1c, 0xc7, 0xd3, 0xe1, 0xe2, 0x01,
   0x80, 0x01, 0x00, 0x00, 0x06, 0x10, 0x00, 0x00, 0x6e, 0x46, 0x86, 0x29,
   0x72, 0xb3, 0x33, 0x03, 0x00, 0x01, 0x00, 0x00, 0x08, 0x08, 0x00, 0x00,
   0x6c, 0x44, 0x86, 0x00, 0x33, 0x12, 0x13, 0x03, 0x00, 0x06, 0x00, 0x00,
   0x18, 0x0e, 0x00, 0x00, 0xc6, 0x44, 0x9c, 0xe0, 0x33, 0x12, 0x13, 0x02,
   0x00, 0x04, 0x00, 0x00, 0x20, 0x02, 0x00, 0x00, 0xc4, 0x66, 0xd0, 0x20,
   0x32, 0x13, 0x13, 0x03, 0x00, 0x18, 0x00, 0x00, 0xe0, 0x01, 0x00, 0x00,
   0x6e, 0x6c, 0x92, 0x69, 0x33, 0xb2, 0x33, 0x01, 0x00, 0x30, 0x00, 0x00,
   0x80, 0x01, 0x00, 0x00, 0x14, 0x5c, 0x1c, 0xe7, 0x22, 0x62, 0xe2, 0x01,
   0x00, 0x60, 0x00, 0x00, 0x00, 0x01, 0x00, 0x00, 0x00, 0x00, 0x00, 0x00,
   0x00, 0x00, 0x00, 0x00, 0x00, 0x40, 0x00, 0x00, 0x00, 0x03, 0x00, 0x00,
   0x00, 0x00, 0x00, 0x00, 0x00, 0x00, 0x00, 0x00, 0x00, 0x80, 0x01, 0x00,
   0x00, 0x06, 0x00, 0x00, 0x00, 0x00, 0x00, 0x00, 0x00, 0x00, 0x00, 0x00,
   0x00, 0xc0, 0x01, 0x00, 0x00, 0x08, 0x00, 0x00, 0x00, 0x00, 0x00, 0x00,
   0x00, 0x00, 0x00, 0x00, 0x00, 0x60, 0x06, 0x00, 0x00, 0x18, 0x00, 0x00,
   0x00, 0x00, 0x00, 0x00, 0x00, 0x00, 0x00, 0x00, 0x00, 0x30, 0x04, 0x00,
   0x00, 0x20, 0x00, 0x00, 0x00, 0x00, 0x00, 0x00, 0x00, 0x00, 0x00, 0x00,
   0x00, 0x10, 0x18, 0x00, 0x00, 0xe0, 0x7f, 0x00, 0x00, 0x00, 0x00, 0x00,
   0x00, 0x00, 0x00, 0x00, 0x00, 0x0c, 0x10, 0x00, 0x00, 0x38, 0xc0, 0x03,
   0x00, 0x00, 0x00, 0x00, 0x00, 0x00, 0x00, 0x00, 0x00, 0x86, 0x60, 0x00,
   0x00, 0x0e, 0x00, 0x0e, 0x00, 0x00, 0x40, 0x88, 0x00, 0x00, 0x00, 0x00,
   0x00, 0x63, 0x40, 0x00, 0x00, 0x03, 0x00, 0x38, 0x00, 0x80, 0x40, 0xc8,
   0x04, 0x00, 0x00, 0x00, 0x00, 0x21, 0x80, 0x01, 0xc0, 0x00, 0x00, 0x60,
   0x00, 0x80, 0x00, 0x08, 0x0c, 0x00, 0x00, 0x00, 0xc0, 0x10, 0x03, 0x01,
   0x40, 0x00, 0x00, 0x40, 0x9c, 0xcf, 0xf3, 0xc8, 0x1e, 0x8f, 0x03, 0x00,
   0x40, 0x0c, 0x03, 0x06, 0x30, 0x00, 0x00, 0x60, 0x02, 0x88, 0x98, 0xc9,
   0x8c, 0xc8, 0x00, 0x00, 0x30, 0x84, 0x10, 0x07, 0x10, 0x00, 0x00, 0x30,
   0x06, 0xcc, 0x88, 0xc9, 0x8c, 0xd8, 0x00, 0x00, 0x18, 0xe3, 0x18, 0x1b,
   0x18, 0x00, 0x00, 0x08, 0x9c, 0x8d, 0x78, 0xc9, 0x8c, 0x8b, 0x03, 0x00,
   0x0c, 0x21, 0xcc, 0x10, 0x08, 0x00, 0x00, 0x0c, 0x90, 0xc8, 0x08, 0xc8,
   0x8c, 0x00, 0x02, 0x00, 0xc4, 0x30, 0x42, 0x60, 0x04, 0x00, 0x00, 0x02,
   0x9a, 0x8d, 0x39, 0xc9, 0x9c, 0x49, 0x33, 0x33, 0x43, 0x0c, 0x33, 0x40,
   0x04, 0x00, 0x00, 0x03, 0x04, 0x09, 0xa1, 0x08, 0x10, 0x86, 0x20, 0x10,
   0x23, 0x8c, 0x10, 0x80, 0x06, 0x00, 0x80, 0x01, 0x00, 0x00, 0x00, 0x00,
   0x00, 0x00, 0x00, 0x00, 0x02, 0xc2, 0x0c, 0x00, 0x03, 0x00, 0xc0, 0x00,
   0x00, 0x00, 0x00, 0x00, 0x00, 0x00, 0x00, 0x00, 0x04, 0x23, 0x04, 0x00,
   0x02, 0x00, 0x20, 0x00, 0x00, 0x00, 0x00, 0x00, 0x00, 0x00, 0x00, 0x00,
   0x0c, 0x31, 0x03, 0x00, 0x02, 0x00, 0x30, 0x00, 0x00, 0x00, 0x00, 0x00,
   0x00, 0x00, 0x00, 0x00, 0x18, 0x08, 0x01, 0x00, 0x02, 0x00, 0x18, 0x00,
   0x00, 0x00, 0x00, 0x00, 0x00, 0x00, 0x00, 0x00, 0x20, 0xcc, 0x00, 0x00,
   0x03, 0x00, 0x0c, 0x00, 0x00, 0x00, 0x00, 0x00, 0x00, 0x00, 0x00, 0x00,
   0x60, 0x40, 0x00, 0x00, 0x02, 0x00, 0x0e, 0x00, 0x00, 0x00, 0x00, 0x00,
   0x00, 0x00, 0x00, 0x00, 0xc0, 0x30, 0x00, 0x00, 0x02, 0x00, 0x1b, 0x00,
   0x00, 0x00, 0x00, 0x00, 0x00, 0x00, 0x00, 0x00, 0x80, 0x11, 0x00, 0x00,
   0x02, 0x80, 0x30, 0x00, 0x00, 0x00, 0x00, 0x00, 0x00, 0x00, 0x00, 0x00,
   0x00, 0x0b, 0x00, 0x00, 0x02, 0xc0, 0x60, 0x00, 0x00, 0x00, 0x00, 0x00,
   0x00, 0x00, 0x00, 0x00, 0x00, 0x06, 0x00, 0x00, 0x02, 0x60, 0xc0, 0x04,
   0x00, 0x00, 0x00, 0x00, 0x00, 0x00, 0x00, 0x00, 0x00, 0x00, 0x00, 0x00,
   0x04, 0x30, 0x80, 0x0f, 0x00, 0x00, 0x00, 0x00, 0x00, 0x00, 0x00, 0x00,
   0x00, 0x00, 0x00, 0x00, 0x04, 0x08, 0x80, 0x19, 0x00, 0x00, 0x00, 0x00,
   0x00, 0x00, 0x00, 0x00, 0x00, 0x00, 0x00, 0x00, 0x0c, 0x0c, 0x80, 0x30,
   0x00, 0x00, 0x00, 0x00, 0x00, 0x00, 0x00, 0x00, 0x00, 0x00, 0x00, 0x00,
   0x08, 0x06, 0x80, 0x61, 0x00, 0x00, 0x00, 0x00, 0x00, 0x00, 0x00, 0x00,
   0x00, 0x00, 0x00, 0x00, 0x18, 0x03, 0x00, 0x63, 0x00, 0x00, 0x00, 0x00,
   0x00, 0x00, 0x00, 0x00, 0x00, 0x00, 0x00, 0x00, 0xb0, 0x00, 0x00, 0x26,
   0x00, 0x00, 0x00, 0x00, 0x00, 0x00, 0x00, 0x00, 0x00, 0x00, 0x00, 0x00,
   0xe0, 0x00, 0x00, 0x1c, 0x00, 0x00, 0x00, 0x00, 0x00, 0x00, 0x00, 0x00,
   0x00, 0x00, 0x00, 0x00, 0x00, 0x00, 0x00, 0x08, 0x00, 0x00, 0x00, 0x00,
   0x00, 0x00, 0x00, 0x00 };
